# xmcd
#
# Track frame offsets: 
#        150
#        28633
#        46462
#        60061
#        64896
#        78920
#        95235
#        109883
#        127222
#        142353
#        156632
#        169767
#        195990
#
# Disc length: 2818 seconds
#
# Revision: 7
# Processed by: cddbd v1.5.2PL0 Copyright (c) Steve Scherf et al.
# Submitted via: ExactAudioCopy v0.99pb5
#
DISCID=be0b000d
DTITLE=Warhammer - Curse Of The Absolute Eclipse
DYEAR=2002
DGENRE=Thrash Metal
TTITLE0=Towards The Temples Of Kandarh (Intro) - Fall Of The Iconoclas
TTITLE0=t
TTITLE1=Necrophobia
TTITLE2=Masters Of Fatalism
TTITLE3=Funeral Rites (Instrumental)
TTITLE4=The Conqueror Worm
TTITLE5=Curse Of The Sabbath (Necrocom's Evocation)
TTITLE6=Crush The Disbeliever
TTITLE7=The Grave Hill
TTITLE8=Inmates Of The Fire
TTITLE9=Infernal Tempest
TTITLE10=The Claw Of Religion
TTITLE11=Dawn Of The Cadaver Ghoul
TTITLE12=Fear The Reaper (Cold And Dying World pt 2)
EXTD=NB 493-2
EXTT0=
EXTT1=
EXTT2=
EXTT3=
EXTT4=
EXTT5=
EXTT6=
EXTT7=
EXTT8=
EXTT9=
EXTT10=
EXTT11=
EXTT12=
PLAYORDER=
